<svg version="1.1" id="Layer_1" xmlns="http://www.w3.org/2000/svg" xmlns:xlink="http://www.w3.org/1999/xlink" x="0px" y="0px"
	 width="100%" viewBox="0 0 320 208" enable-background="new 0 0 320 208" xml:space="preserve">
<path fill="#000000" opacity="1.000000" stroke="none" 
	d="
M126.468658,209.000000 
	C117.140816,202.959106 109.057327,196.035843 102.898888,187.197769 
	C97.001595,178.734497 91.774872,169.870590 88.155884,160.114731 
	C87.035393,157.094177 87.709206,155.642639 90.471413,154.198486 
	C96.958542,150.806824 103.392365,147.283264 109.639732,143.472092 
	C114.952118,140.231293 114.956963,134.039429 109.946892,130.155136 
	C109.160744,129.545654 108.334175,128.856415 107.412865,128.573685 
	C98.745071,125.913658 93.650589,119.264595 88.980179,112.156189 
	C87.249695,109.522369 84.922943,107.423096 83.300873,104.614929 
	C77.754478,95.012878 81.028786,85.403152 83.061890,75.963959 
	C85.451019,64.871773 89.439064,54.238808 95.264244,44.406181 
	C96.579002,42.186932 97.845619,39.814880 100.437515,38.791763 
	C100.862717,39.237041 101.216751,39.435226 101.282196,39.703751 
	C101.786201,41.771736 100.107292,44.750084 103.401802,45.639061 
	C106.263878,46.411350 108.601974,44.984303 110.496635,42.926140 
	C112.636070,40.602062 114.987480,38.392288 116.706993,35.777836 
	C121.610649,28.322012 129.458771,24.877293 136.683990,20.560919 
	C137.230255,20.234585 138.023422,19.951927 138.593781,20.091253 
	C146.626083,22.053320 154.492920,17.035597 162.205505,18.979954 
	C170.263214,21.011311 177.654343,25.349890 182.562531,32.374981 
	C185.474487,36.542862 187.220169,41.527760 189.466522,46.156807 
	C189.975388,47.205410 190.443695,48.300316 189.609940,49.403214 
	C188.113419,49.627865 187.434235,48.555065 186.807175,47.623867 
	C184.267059,43.851814 180.944809,43.201927 176.447815,43.495110 
	C171.105713,43.843391 165.628433,42.901039 160.272018,42.100914 
	C143.815613,39.642696 142.722595,45.206234 137.461639,56.240658 
	C136.354385,58.563023 137.534805,60.702518 139.144714,62.630398 
	C141.938019,65.975426 142.823395,69.509254 140.043594,73.459999 
	C137.399460,77.217926 138.115509,81.808113 137.423523,86.031395 
	C136.456879,91.931061 135.647247,92.787003 129.748535,92.382668 
	C128.371338,92.288269 127.629555,92.901855 126.814156,93.826271 
	C125.249176,95.600510 123.223518,96.635124 120.827675,96.891548 
	C123.029060,102.554817 124.327324,103.201630 131.098358,102.116043 
	C132.548508,103.398758 132.805206,105.513329 132.080078,106.691269 
	C128.602493,112.340523 131.294739,118.083679 131.582947,123.714172 
	C131.744156,126.863525 131.702866,129.743637 129.918015,132.272171 
	C127.891884,135.142548 128.142303,137.854141 129.781738,140.660736 
	C132.050095,144.544022 134.327835,148.422607 136.665146,152.264511 
	C137.762268,154.067856 139.558960,156.018875 141.461304,154.288483 
	C147.083511,149.174454 152.998306,153.222000 158.559296,153.708588 
	C161.841293,153.995758 164.634644,154.074982 167.590271,152.865997 
	C169.889893,151.925339 172.150864,150.604858 174.754028,150.998215 
	C178.096909,151.503342 178.695160,149.357986 179.058945,146.868134 
	C179.277878,145.369766 179.597565,143.829483 177.985580,142.838303 
	C176.558411,141.960770 175.449982,142.916183 174.318710,143.574371 
	C170.005676,146.083801 165.704391,148.613464 161.393021,151.125763 
	C160.215607,151.811859 158.910782,152.548203 157.782135,151.255219 
	C156.615997,149.919266 157.771255,148.793243 158.491882,147.715912 
	C159.702805,145.905548 163.450195,145.232788 162.164459,142.481628 
	C160.475998,138.868698 157.564041,135.939621 153.454254,134.742310 
	C146.069489,132.590851 141.868912,126.687309 137.382721,121.133247 
	C136.788528,120.397621 136.292053,119.450027 136.940033,118.237305 
	C146.163422,124.439163 156.455734,127.612526 167.226868,129.911209 
	C172.607895,131.059555 177.464279,129.754242 182.481888,128.993027 
	C185.120316,128.592743 186.967072,126.434837 186.691742,123.587166 
	C186.427811,120.857193 184.084717,119.899796 181.674484,119.474380 
	C179.083588,119.017082 175.862106,120.073013 174.641800,116.662560 
	C175.514114,113.933281 178.504150,115.603889 179.944260,113.379776 
	C174.467972,110.342972 169.425720,114.905838 164.099670,114.197388 
	C164.278839,111.269791 165.976913,109.982246 168.296097,109.981895 
	C171.320084,109.981438 173.731659,108.595581 176.267303,107.367462 
	C177.708603,106.669380 179.659134,106.411293 179.002914,103.985474 
	C178.480240,102.053268 177.371887,101.298294 175.316360,101.605682 
	C173.617676,101.859703 171.956329,101.591187 171.269897,98.391830 
	C179.723267,99.189072 187.403320,97.332115 193.797134,92.076782 
	C196.352173,94.080208 196.049316,96.385864 195.214081,98.292862 
	C191.946106,105.754425 192.103317,113.905487 190.225830,121.638023 
	C189.120270,126.191368 188.359314,130.729416 183.783890,133.499054 
	C181.229233,135.045441 182.778549,136.925705 183.848099,139.012238 
	C190.169678,151.344543 201.977203,157.760529 212.328522,165.693588 
	C222.472229,173.467499 223.177856,170.333633 215.080399,183.296524 
	C208.734970,193.454681 200.100891,201.522903 190.199448,208.734436 
	C168.979111,209.000000 147.958206,209.000000 126.468658,209.000000 
M168.318130,165.065613 
	C162.313812,161.653336 156.501602,161.589706 150.423294,165.267838 
	C147.672073,166.932693 146.705170,168.194031 148.557281,171.056824 
	C151.541718,175.669830 154.354599,180.393768 157.244705,185.067902 
	C158.856216,187.674194 160.710281,188.329849 162.483978,185.344589 
	C165.371857,180.484100 168.053497,175.501572 170.882141,170.605194 
	C172.362885,168.042023 171.134064,166.562454 168.318130,165.065613 
z"/>
<path fill="#000000" opacity="1.000000" stroke="none" 
	d="
M190.226517,53.612328 
	C193.253586,51.571808 193.505234,54.478611 194.355179,55.879162 
	C198.339157,62.443962 196.648590,69.221642 194.794067,75.953285 
	C194.533691,76.898338 193.674179,77.748108 193.626114,78.669838 
	C193.413239,82.752052 191.163147,83.338692 187.576538,83.069191 
	C183.643784,82.773682 181.194702,81.186928 180.762970,77.286636 
	C180.394165,73.954948 180.304581,70.661827 184.430313,69.033730 
	C193.105438,65.610344 193.067825,65.515045 190.779846,56.367371 
	C190.578705,55.563206 190.377792,54.758987 190.226517,53.612328 
z"/>
<path fill="#000000" opacity="1.000000" stroke="none" 
	d="
M169.206116,80.328056 
	C163.490662,83.293274 158.112564,82.269608 152.391495,81.130974 
	C152.970413,78.215179 157.271744,76.425568 153.153778,74.029526 
	C159.411057,68.568871 171.033234,67.850060 175.616455,72.654640 
	C173.184937,74.802048 172.439819,78.297356 169.206116,80.328056 
z"/>
</svg>