<?xml version="1.0" standalone="no"?>
<!DOCTYPE svg PUBLIC "-//W3C//DTD SVG 20010904//EN"
 "http://www.w3.org/TR/2001/REC-SVG-20010904/DTD/svg10.dtd">
<svg version="1.0" xmlns="http://www.w3.org/2000/svg"
 width="320.000000pt" height="463.000000pt" viewBox="0 0 320.000000 463.000000"
 preserveAspectRatio="xMidYMid meet">

<g transform="translate(0.000000,463.000000) scale(0.100000,-0.100000)"
fill="#000000" stroke="none">
<path d="M0 3225 c0 -1391 0 -1405 20 -1415 25 -13 26 -30 2 -30 -14 0 -18 -9
-20 -47 -2 -59 4 -80 26 -86 12 -3 11 -5 -5 -6 -32 -1 -29 -51 3 -51 19 0 21
-4 15 -28 -8 -29 -28 -29 -24 1 2 9 -1 17 -6 17 -6 0 -10 -316 -11 -790 l0
-790 1600 0 1600 0 0 2315 0 2315 -1600 0 -1600 0 0 -1405z m1641 1258 c-11
-5 -11 -7 0 -14 10 -6 5 -10 -18 -15 -18 -4 -33 -10 -33 -15 0 -5 11 -4 24 1
35 13 104 10 117 -6 6 -8 20 -14 30 -14 21 0 26 -16 7 -23 -9 -3 -7 -10 7 -21
l20 -17 -20 2 c-43 3 -61 -2 -100 -27 -23 -14 -31 -22 -17 -19 15 5 24 1 28
-10 4 -9 17 -21 30 -25 16 -7 22 -14 17 -25 -4 -11 -1 -16 8 -15 28 4 50 0 45
-9 -3 -4 6 -19 20 -32 13 -12 23 -28 21 -34 -6 -15 29 -76 38 -67 5 4 5 -1 2
-10 -3 -9 -1 -18 5 -20 6 -2 8 -13 6 -23 -3 -16 -7 -13 -22 17 -10 21 -22 35
-27 32 -13 -8 -47 13 -53 34 -3 9 -21 22 -40 28 -20 6 -33 7 -30 3 2 -4 -13
-6 -33 -4 -29 4 -32 3 -13 -3 l25 -8 -25 -7 c-14 -4 -36 -7 -50 -7 -14 0 -32
-5 -40 -11 -11 -8 -7 -9 19 -5 30 5 32 4 20 -11 -13 -15 -9 -16 54 -9 42 4 66
3 63 -3 -3 -5 -22 -9 -41 -9 -20 0 -42 -5 -49 -11 -7 -6 -22 -8 -32 -5 -11 4
-16 3 -12 -1 5 -5 -2 -13 -14 -19 -13 -6 -24 -20 -26 -31 -2 -11 -11 -28 -20
-38 -11 -13 -13 -20 -4 -29 8 -8 14 -4 23 15 27 60 159 108 198 73 9 -8 32
-16 51 -18 19 -1 38 -10 42 -18 5 -13 7 -12 7 2 1 19 44 19 63 0 7 -7 20 -12
30 -12 10 0 18 -4 18 -9 0 -5 15 -25 34 -44 18 -19 36 -41 40 -48 3 -8 4 -2 1
14 -6 33 1 34 26 5 11 -11 19 -17 20 -12 0 5 5 -2 11 -16 6 -14 12 -20 14 -14
5 13 74 -5 74 -19 0 -12 27 -37 40 -37 23 0 49 -45 50 -83 0 -33 3 -37 18 -33
34 11 50 -44 36 -125 -4 -26 -1 -40 11 -52 9 -10 14 -17 11 -17 -3 0 -1 -12 5
-27 11 -29 -9 -101 -37 -134 -8 -8 -15 -29 -15 -45 -1 -21 -3 -23 -6 -9 -6 24
-22 45 -35 45 -5 0 -17 -19 -27 -42 -10 -24 -28 -52 -40 -62 -21 -19 -21 -19
-21 10 -1 28 -1 28 -15 10 -18 -24 -20 -56 -3 -56 9 0 9 -3 0 -12 -7 -7 -12
-35 -12 -63 0 -39 6 -56 25 -79 28 -32 27 -30 30 -136 2 -53 8 -87 22 -115 19
-36 28 -91 24 -136 0 -8 -21 -22 -49 -32 -47 -17 -48 -17 -97 7 -28 13 -54 21
-60 18 -5 -4 -36 -7 -67 -7 -62 0 -72 11 -47 57 16 29 -3 45 -36 30 -14 -6
-25 -17 -24 -24 0 -10 2 -10 6 0 2 6 11 12 18 12 10 0 12 -7 5 -28 -7 -28 1
-55 24 -77 13 -12 63 -35 76 -35 19 0 10 21 -12 29 -21 8 -22 10 -4 17 22 8
71 -7 67 -21 -1 -5 -9 -9 -17 -9 -8 1 -14 -6 -14 -15 0 -9 -3 -27 -7 -40 -4
-17 -3 -22 6 -17 6 4 9 11 7 15 -3 4 -1 13 4 21 12 20 40 -11 41 -47 0 -24 1
-25 9 -8 7 19 8 19 17 -5 6 -14 13 -43 16 -65 3 -22 3 -34 0 -27 -4 10 -8 8
-19 -5 -12 -17 -13 -16 -14 6 0 28 -6 26 -12 -4 -3 -18 -38 -55 -52 -55 -3 0
-6 7 -6 15 0 12 -12 14 -65 10 -43 -3 -65 0 -65 7 0 6 -8 4 -18 -5 -21 -19
-42 -22 -42 -7 0 21 -20 9 -21 -12 -1 -18 -2 -19 -6 -5 -3 11 -12 16 -26 13
-38 -7 -57 -18 -57 -32 0 -8 7 -11 18 -8 14 5 14 4 2 -4 -8 -6 -17 -9 -21 -6
-4 2 -10 0 -14 -6 -3 -5 -15 -10 -25 -10 -21 0 -25 -4 -34 -41 -5 -24 -3 -27
18 -25 13 0 22 4 19 9 -2 4 3 7 12 7 8 0 18 7 21 15 4 8 11 15 17 15 6 0 21
10 33 21 38 36 107 40 184 12 8 -3 22 -7 30 -8 8 -1 25 -5 38 -9 l23 -8 -26
-20 c-27 -21 -26 -41 2 -31 13 5 15 2 10 -11 -4 -10 -7 -27 -7 -37 0 -11 -4
-17 -10 -14 -6 4 -10 -10 -10 -34 0 -23 5 -41 10 -41 6 0 11 -8 11 -17 1 -17
2 -17 6 0 4 17 23 24 23 9 0 -4 9 -8 20 -8 18 0 20 6 16 46 -2 25 -1 34 1 20
5 -28 23 -52 23 -31 0 8 10 24 23 36 33 32 57 64 57 75 0 6 2 10 4 10 2 0 11
3 19 6 8 3 22 -3 31 -12 13 -13 17 -13 16 -3 -5 31 1 49 14 49 8 0 17 -6 19
-12 3 -8 6 -6 6 5 1 9 8 17 16 17 22 0 20 76 -2 98 -12 12 -18 13 -21 4 -6
-19 -19 -14 -25 9 -3 12 -10 18 -16 14 -7 -4 -11 4 -11 20 0 15 -4 24 -10 20
-6 -3 -7 -17 -4 -31 5 -21 3 -24 -19 -24 -14 0 -28 7 -32 18 -12 28 -14 103
-4 96 6 -3 16 0 24 6 13 11 15 7 15 -19 0 -17 5 -31 11 -31 6 0 9 7 5 15 -3 8
-1 27 5 42 l10 26 42 -45 c24 -24 49 -42 56 -40 8 3 11 0 8 -5 -3 -5 3 -14 13
-21 16 -10 19 -7 25 21 16 79 31 93 30 27 0 -22 -3 -40 -7 -40 -5 0 -8 -7 -8
-15 0 -8 -4 -15 -9 -15 -5 0 -9 -29 -9 -64 0 -40 -6 -77 -16 -97 -9 -18 -16
-37 -16 -44 0 -6 -14 -33 -32 -61 -17 -27 -37 -69 -44 -93 -10 -32 -35 -65
-97 -127 -74 -75 -120 -107 -102 -71 4 6 -2 3 -12 -8 -33 -37 -88 -66 -101
-53 -8 8 -13 7 -18 -5 -3 -9 -17 -17 -30 -17 -36 0 -73 -20 -67 -37 5 -12 8
-12 22 0 28 24 39 28 47 15 4 -7 4 -10 0 -6 -8 7 -46 -26 -46 -41 0 -5 -9 -11
-19 -14 -11 -2 -21 -15 -23 -28 -2 -19 -9 -24 -30 -22 -15 1 -42 8 -60 17 -18
8 -58 22 -88 31 -50 14 -76 27 -177 90 -17 11 -39 33 -47 50 -11 20 -14 23
-10 8 6 -27 -5 -29 -46 -8 -22 11 -29 12 -33 2 -3 -6 -10 0 -16 15 -13 35 -25
36 -17 2 6 -22 5 -24 -7 -13 -7 8 -27 33 -44 57 -19 26 -33 38 -36 30 -3 -7
-6 -3 -6 8 -1 12 -9 32 -19 45 -10 13 -26 49 -36 79 -10 30 -28 65 -40 78 -19
21 -21 21 -27 5 -5 -15 -8 -13 -21 11 -12 23 -13 38 -5 68 8 34 7 41 -12 59
-12 11 -25 17 -30 14 -5 -3 -12 -1 -16 5 -3 5 2 11 12 11 17 1 17 2 0 6 -9 2
-15 8 -12 13 3 4 -9 13 -25 19 -17 5 -30 15 -30 21 0 7 -10 26 -22 43 l-22 30
23 -6 c19 -4 20 -3 10 9 -7 8 -17 13 -23 11 -7 -3 -12 3 -12 13 0 15 4 16 23
7 13 -6 23 -14 23 -18 0 -4 8 -10 18 -13 9 -4 0 9 -20 28 -21 19 -38 40 -38
47 0 7 8 4 21 -7 21 -19 21 -19 17 6 -2 14 -9 24 -16 22 -6 -1 -12 2 -12 8 0
5 -7 10 -15 10 -8 0 -15 5 -15 11 0 5 4 8 9 5 4 -3 17 1 27 10 18 14 18 14 -6
12 -22 -3 -25 1 -25 29 0 17 2 30 6 28 3 -2 6 12 6 31 1 33 1 33 -15 13 -29
-34 -70 -10 -129 74 -66 95 -93 158 -99 232 l-5 60 19 -68 c22 -80 46 -109 96
-112 43 -4 39 9 -9 29 -40 17 -54 40 -65 109 -7 45 -5 55 11 70 10 10 19 14
19 10 1 -4 7 3 15 17 15 25 15 25 13 -13 -2 -26 -6 -36 -15 -33 -7 3 -13 -1
-13 -9 0 -8 4 -15 10 -15 5 0 13 -18 16 -40 7 -45 18 -57 59 -64 17 -3 36 -15
44 -26 7 -11 18 -20 23 -20 5 0 18 -10 29 -22 10 -13 18 -17 19 -10 0 6 -3 12
-7 12 -5 0 -8 12 -8 28 0 15 -4 39 -8 55 -6 23 -4 27 13 27 11 0 20 6 20 14 0
9 -7 12 -20 9 -11 -3 -20 -10 -20 -15 0 -5 -8 -8 -18 -6 -10 1 -29 -4 -43 -13
-15 -10 -31 -13 -44 -9 -18 7 -17 9 10 20 l30 13 -30 7 c-25 6 -27 8 -12 15
15 6 16 10 5 17 -9 7 -4 8 14 4 32 -7 97 23 91 41 -3 7 9 32 25 55 16 24 36
66 45 93 9 28 25 77 37 110 13 36 19 70 16 88 -3 16 -1 38 5 49 8 15 8 22 0
28 -8 5 -5 14 9 31 l21 24 -6 -25 c-5 -22 -4 -23 5 -7 7 10 9 25 6 32 -9 25
26 72 63 85 20 7 43 21 51 31 42 49 48 58 54 77 4 10 15 27 26 37 11 10 20 28
20 41 0 13 5 26 10 29 6 3 10 12 10 20 0 8 13 37 30 65 16 27 27 50 24 50 -3
0 -2 5 2 11 4 8 9 7 15 -2 7 -12 9 -12 9 -1 0 8 20 32 45 54 25 22 45 44 45
48 0 4 -18 4 -41 0 -42 -8 -94 -40 -117 -71 -7 -10 -19 -25 -27 -33 -24 -24
-34 -61 -31 -114 4 -53 2 -59 -28 -82 -18 -14 -19 -13 -13 3 5 13 1 17 -17 17
l-24 0 22 78 c35 120 84 211 107 196 5 -3 7 1 4 8 -2 7 23 36 57 63 33 28 65
55 72 60 15 14 116 65 127 65 6 0 33 16 62 35 28 19 44 35 35 35 -9 0 -24 -7
-33 -16 -8 -9 -27 -17 -40 -18 -14 0 -25 -4 -25 -7 0 -3 -19 -12 -42 -19 -44
-14 -144 -77 -182 -113 -11 -12 -30 -35 -41 -53 -42 -66 -81 -112 -109 -128
-39 -22 -44 -14 -12 21 30 32 33 45 9 36 -11 -5 -14 -3 -9 6 5 7 16 11 25 9 9
-2 26 7 38 19 21 22 21 23 3 23 -11 0 -20 -7 -20 -15 0 -9 -9 -15 -25 -15 -17
0 -47 -21 -95 -66 -73 -69 -93 -70 -39 -3 32 40 30 52 -3 22 -17 -15 -20 -15
-28 -3 -8 12 -10 10 -10 -7 0 -23 -15 -32 -22 -13 -2 6 -13 2 -25 -10 -24 -22
-49 -27 -36 -7 4 6 8 18 9 24 4 24 46 83 67 95 21 11 21 11 2 19 -19 7 -19 8
3 8 13 1 22 7 22 16 0 8 5 15 10 15 6 0 10 4 10 10 0 11 -49 -7 -65 -24 -6 -6
-17 -12 -25 -14 -8 -2 -25 -13 -37 -24 -38 -36 -37 -13 2 38 34 44 131 140
188 184 12 10 41 24 65 30 23 7 42 17 42 22 0 4 7 8 15 8 8 0 23 4 33 9 38 20
91 41 104 41 8 0 23 7 34 15 14 11 48 14 139 14 66 0 114 -3 106 -6z m189 -43
c11 -7 5 -8 -20 -4 -43 8 -51 14 -19 14 13 0 31 -5 39 -10z m325 -180 c3 -5 2
-10 -4 -10 -5 0 -13 5 -16 10 -3 6 -2 10 4 10 5 0 13 -4 16 -10z m-1027 -240
c-7 -11 -19 -20 -27 -20 -11 0 -10 5 4 20 10 11 22 20 27 20 4 0 3 -9 -4 -20z
m50 -47 c-9 -10 -18 -27 -22 -38 -7 -22 -66 -61 -66 -43 0 6 14 24 30 40 17
15 30 35 30 42 0 8 8 16 18 18 25 6 27 1 10 -19z m-42 -138 c-3 -8 1 -18 8
-22 10 -6 10 -13 0 -31 -6 -13 -15 -19 -18 -14 -3 6 -2 13 4 17 12 8 13 25 1
25 -5 0 -18 -19 -30 -42 -11 -24 -45 -70 -76 -103 l-56 -60 31 59 c23 45 27
62 19 72 -9 11 -8 14 1 14 9 0 9 4 -1 17 -12 15 -12 16 4 10 10 -4 16 -3 12 2
-7 13 5 42 16 35 5 -3 9 0 9 5 0 6 7 11 15 11 8 0 15 -5 15 -12 0 -7 8 -2 18
10 19 25 37 29 28 7z m1434 -150 c0 -8 -4 -15 -10 -15 -5 0 -7 7 -4 15 4 8 8
15 10 15 2 0 4 -7 4 -15z m-1830 -304 c0 -5 -7 -14 -15 -21 -16 -14 -18 -10
-9 14 6 17 24 22 24 7z m55 -161 c3 -5 1 -10 -4 -10 -6 0 -11 5 -11 10 0 6 2
10 4 10 3 0 8 -4 11 -10z m1425 -55 c0 -2 -10 -10 -22 -16 -21 -11 -22 -11 -9
4 13 16 31 23 31 12z m-1614 -82 c-1 -32 1 -75 5 -95 3 -21 3 -38 -1 -38 -16
0 -29 117 -18 154 6 20 12 36 14 36 1 0 1 -26 0 -57z m1674 -8 c0 -28 -16 -32
-43 -11 -18 14 -18 15 0 25 29 17 43 13 43 -14z m177 -67 c-3 -8 -6 -5 -6 6
-1 11 2 17 5 13 3 -3 4 -12 1 -19z m-74 -117 c-3 -11 -14 -27 -24 -37 -21 -19
-26 -64 -7 -64 6 0 9 -2 6 -5 -11 -12 -38 8 -38 29 -1 20 -1 20 -11 2 -9 -14
-8 -20 1 -26 9 -6 9 -13 1 -29 -6 -11 -9 -32 -5 -46 4 -18 2 -25 -8 -25 -20 0
-38 21 -38 45 0 12 -4 25 -10 31 -5 5 -10 29 -12 53 -2 32 1 45 12 48 13 4 13
3 0 -6 -9 -7 -10 -11 -3 -11 6 0 15 5 18 10 11 18 55 12 56 -7 0 -12 2 -14 6
-5 6 16 45 59 55 61 3 1 4 -8 1 -18z m43 -199 c-13 -12 -17 8 -9 44 l8 39 3
-39 c2 -21 1 -41 -2 -44z m-1989 8 c-14 -11 -31 -20 -39 -20 -7 0 1 9 17 20
39 26 55 26 22 0z m1993 -40 c-19 -12 -30 -12 -30 -1 0 10 31 20 40 14 2 -2
-2 -8 -10 -13z m-146 -48 c-9 -48 -6 -74 12 -88 18 -14 18 -25 1 -18 -8 3 -24
18 -36 35 l-22 30 20 26 c12 14 21 37 22 52 0 14 3 20 6 13 3 -7 2 -30 -3 -50z
m-1924 28 c0 -5 -8 -10 -17 -10 -15 0 -16 2 -3 10 19 12 20 12 20 0z m-40 -38
c0 -14 -38 -31 -59 -25 -29 8 -26 21 7 26 48 7 52 7 52 -1z m2094 -22 c8 -16
10 -30 5 -30 -6 0 -7 -4 -4 -10 3 -5 1 -10 -5 -10 -7 0 -9 7 -6 16 5 12 2 15
-10 10 -12 -5 -15 -2 -10 10 3 8 6 22 6 30 0 22 7 17 24 -16z m-247 -52 c-3
-8 -6 -5 -6 6 -1 11 2 17 5 13 3 -3 4 -12 1 -19z m-1593 -43 c-4 -8 -11 -15
-16 -15 -6 0 -5 6 2 15 7 8 14 15 16 15 2 0 1 -7 -2 -15z m1910 -6 c-3 -5 -10
-7 -15 -3 -5 3 -7 10 -3 15 3 5 10 7 15 3 5 -3 7 -10 3 -15z m-367 -21 c-3 -8
-6 -5 -6 6 -1 11 2 17 5 13 3 -3 4 -12 1 -19z m-1536 -51 c-8 -8 -11 -7 -11 4
0 20 13 34 18 19 3 -7 -1 -17 -7 -23z m35 -19 c-10 -6 -16 -22 -16 -43 0 -44
-16 -53 -24 -14 -9 47 -7 59 8 53 7 -3 16 2 20 11 3 9 11 13 17 9 8 -5 6 -10
-5 -16z m1875 -51 c-13 -13 -26 -3 -16 12 3 6 11 8 17 5 6 -4 6 -10 -1 -17z
m-1857 -3 c9 -22 -3 -32 -14 -14 -12 19 -12 30 -1 30 5 0 12 -7 15 -16z m55
-157 c1 -5 -3 -5 -9 -2 -15 9 -12 -12 4 -28 8 -7 16 -33 17 -57 3 -41 2 -44
-24 -47 -24 -3 -27 -1 -27 27 0 16 4 30 10 30 5 0 8 22 7 49 -1 27 -5 47 -9
44 -5 -2 -8 5 -8 16 0 11 -4 23 -10 26 -5 3 -10 1 -10 -4 0 -6 -5 -11 -11 -11
-6 0 -9 10 -7 23 2 12 10 22 18 22 9 0 16 12 19 30 2 25 6 17 21 -40 11 -38
19 -74 19 -78z m1338 21 c-3 -8 -6 -5 -6 6 -1 11 2 17 5 13 3 -3 4 -12 1 -19z
m62 -15 c-1 -24 -3 -29 -6 -15 -2 12 -8 22 -13 22 -4 0 -10 7 -14 15 -4 10 1
15 14 15 17 0 20 -6 19 -37z m-1449 17 c0 -5 -5 -10 -11 -10 -5 0 -7 5 -4 10
3 6 8 10 11 10 2 0 4 -4 4 -10z m-320 -10 c0 -5 -5 -10 -11 -10 -5 0 -7 5 -4
10 3 6 8 10 11 10 2 0 4 -4 4 -10z m340 -50 c0 -5 -4 -10 -10 -10 -5 0 -10 5
-10 10 0 6 5 10 10 10 6 0 10 -4 10 -10z m-310 -10 c0 -5 -7 -10 -16 -10 -8 0
-12 5 -9 10 3 6 10 10 16 10 5 0 9 -4 9 -10z m280 0 c0 -5 -4 -10 -10 -10 -5
0 -10 5 -10 10 0 6 5 10 10 10 6 0 10 -4 10 -10z m351 -124 c60 -71 76 -106
40 -86 -14 7 -21 6 -24 -3 -3 -6 -11 3 -19 21 -8 18 -17 30 -20 27 -3 -3 -8 1
-12 10 -4 11 -2 14 6 9 7 -4 8 -3 4 4 -4 7 -13 12 -20 12 -11 0 -56 84 -56
104 0 12 44 -31 101 -98z m-637 85 c3 -5 -3 -11 -13 -14 -14 -3 -18 -1 -14 9
6 16 19 18 27 5z m166 -15 c0 -3 -4 -8 -10 -11 -5 -3 -10 -1 -10 4 0 6 5 11
10 11 6 0 10 -2 10 -4z m100 -16 c0 -5 -4 -10 -10 -10 -5 0 -10 5 -10 10 0 6
5 10 10 10 6 0 10 -4 10 -10z m100 -50 c0 -16 -7 -20 -32 -20 -25 0 -29 3 -18
10 13 9 13 11 0 20 -11 7 -7 10 18 10 25 0 32 -4 32 -20z m-630 0 c0 -5 -5
-10 -11 -10 -5 0 -7 5 -4 10 3 6 8 10 11 10 2 0 4 -4 4 -10z m255 -30 c-3 -5
-12 -7 -20 -3 -21 7 -19 13 6 13 11 0 18 -4 14 -10z m369 -15 c3 -8 1 -15 -4
-15 -6 0 -10 7 -10 15 0 8 2 15 4 15 2 0 6 -7 10 -15z m1600 -67 c23 -32 20
-44 -11 -42 -16 1 -34 3 -40 3 -16 1 -17 35 -1 77 l12 33 12 -25 c7 -13 20
-34 28 -46z m-1602 0 c-17 -8 -26 -8 -34 0 -9 9 -4 12 23 11 32 0 33 -1 11
-11z m324 -15 c13 -17 14 -17 8 0 -11 30 14 19 78 -36 35 -29 79 -64 98 -77
19 -13 37 -27 40 -32 3 -4 26 -18 50 -32 25 -13 74 -40 110 -60 36 -19 76 -36
89 -36 13 0 21 -3 18 -6 -3 -4 5 -26 19 -50 18 -31 22 -44 12 -44 -11 0 -11
-2 0 -9 8 -5 -11 -10 -52 -14 -81 -8 -144 10 -183 50 -99 105 -122 135 -117
151 5 13 4 14 -4 3 -7 -10 -11 -10 -17 -1 -4 7 -1 17 6 22 11 8 10 9 -3 5 -9
-3 -22 1 -29 9 -10 12 -9 13 5 8 9 -3 16 -1 16 5 0 6 -4 11 -10 11 -5 0 -10 7
-10 15 0 8 -4 15 -10 15 -5 0 -19 9 -30 20 -11 11 -15 20 -8 20 6 0 3 6 -7 14
-11 8 -23 12 -27 10 -5 -3 -8 2 -8 11 0 11 -5 15 -14 12 -8 -3 -22 3 -32 14
-9 10 -14 19 -9 19 4 0 14 -8 21 -17z m-306 -49 c0 -25 -4 -43 -9 -40 -5 4
-12 0 -14 -6 -3 -7 -6 -2 -6 13 -1 14 4 30 11 37 14 14 -13 27 -42 19 -11 -3
-20 -1 -20 3 0 11 19 18 53 19 26 1 27 -1 27 -45z m-62 -30 c-3 -14 -5 -12
-10 9 -3 19 -2 25 4 19 6 -6 8 -18 6 -28z m1716 5 c37 -41 27 -48 -12 -8 -30
30 -30 31 -57 13 -24 -16 -27 -16 -43 -1 -9 10 -11 17 -5 17 7 0 15 -5 18 -10
4 -7 14 -5 28 5 30 21 40 19 71 -16z m-1774 17 c0 -11 -19 -15 -25 -6 -3 5 1
10 9 10 9 0 16 -2 16 -4z m1756 -63 c17 -23 17 -33 0 -33 -8 0 -17 7 -20 16
-14 36 -2 46 20 17z m-1646 -24 c0 -6 -4 -7 -10 -4 -5 3 -10 11 -10 16 0 6 5
7 10 4 6 -3 10 -11 10 -16z m17 -44 c3 -9 3 -19 -1 -22 -8 -9 -37 18 -30 28 8
14 24 11 31 -6z m-10 -67 c-3 -7 -5 -2 -5 12 0 14 2 19 5 13 2 -7 2 -19 0 -25z
m2093 -53 c7 -9 8 -15 2 -15 -5 0 -12 7 -16 15 -3 8 -4 15 -2 15 2 0 9 -7 16
-15z m-2480 -11 c0 -8 -4 -12 -10 -9 -5 3 -10 10 -10 16 0 5 5 9 10 9 6 0 10
-7 10 -16z m436 -21 c-10 -10 -19 5 -10 18 6 11 8 11 12 0 2 -7 1 -15 -2 -18z
m34 11 c0 -8 -4 -12 -10 -9 -5 3 -10 10 -10 16 0 5 5 9 10 9 6 0 10 -7 10 -16z
m-475 -24 c3 -5 18 -10 33 -11 16 0 21 -3 12 -6 -35 -13 -40 -24 -25 -53 13
-25 13 -29 0 -34 -8 -3 -12 -12 -9 -21 3 -8 1 -15 -5 -15 -6 0 -11 -5 -11 -11
0 -7 9 -9 21 -6 13 3 19 1 16 -6 -2 -7 -19 -12 -38 -12 -27 0 -36 5 -47 28
-10 21 -11 32 -3 40 6 6 11 25 11 42 0 16 3 40 6 53 7 23 28 30 39 12z m2395
-60 c0 -5 -7 -10 -15 -10 -8 0 -15 5 -15 10 0 6 7 10 15 10 8 0 15 -4 15 -10z
m-2643 -57 c-3 -3 -11 -2 -17 2 -9 6 -9 10 1 16 14 8 27 -7 16 -18z m-42 7
c-3 -5 -10 -10 -16 -10 -5 0 -9 5 -9 10 0 6 7 10 16 10 8 0 12 -4 9 -10z m819
-6 c9 -23 8 -24 -16 -24 -17 0 -19 3 -9 9 7 5 10 14 7 20 -4 6 -3 11 2 11 6 0
13 -7 16 -16z m-484 -84 c0 -5 -4 -10 -10 -10 -5 0 -10 5 -10 10 0 6 5 10 10
10 6 0 10 -4 10 -10z m10 -51 c0 -10 -6 -19 -14 -19 -11 0 -15 29 -7 48 4 10
21 -12 21 -29z m-73 -5 c-3 -3 -12 -4 -19 -1 -8 3 -5 6 6 6 11 1 17 -2 13 -5z
m-266 -27 c-1 -4 -1 -15 -1 -24 0 -15 -2 -16 -10 -3 -13 20 -13 43 1 38 6 -2
10 -7 10 -11z m30 -30 c-1 -12 -15 -9 -19 4 -3 6 1 10 8 8 6 -3 11 -8 11 -12z
m869 -3 c0 -8 -5 -12 -10 -9 -6 4 -8 11 -5 16 9 14 15 11 15 -7z m-623 -56
c-3 -8 -6 -5 -6 6 -1 11 2 17 5 13 3 -3 4 -12 1 -19z m-222 2 c3 -5 1 -10 -4
-10 -6 0 -11 5 -11 10 0 6 2 10 4 10 3 0 8 -4 11 -10z m-28 -22 c-3 -8 -6 -5
-6 6 -1 11 2 17 5 13 3 -3 4 -12 1 -19z m41 -65 c-4 -24 -25 -27 -30 -5 -4 12
1 18 14 19 13 1 18 -4 16 -14z m352 -15 c0 -36 -4 -35 -14 5 -4 16 -2 27 4 27
5 0 10 -14 10 -32z m-320 6 c0 -8 -5 -12 -10 -9 -6 4 -8 11 -5 16 9 14 15 11
15 -7z m203 -26 c4 -12 4 -24 1 -27 -6 -7 -24 20 -24 37 0 21 17 13 23 -10z
m553 -3 c-11 -8 -24 -15 -30 -15 -5 0 -1 7 10 15 10 8 24 14 29 14 6 0 1 -6
-9 -14z m-463 -20 c4 -8 2 -17 -3 -20 -6 -4 -10 3 -10 14 0 25 6 27 13 6z m37
-5 c0 -5 -2 -10 -4 -10 -3 0 -8 5 -11 10 -3 6 -1 10 4 10 6 0 11 -4 11 -10z
m647 -5 c3 -9 3 -19 -1 -22 -8 -9 -37 18 -30 28 8 14 24 11 31 -6z m-77 -15
c0 -5 -5 -10 -11 -10 -5 0 -7 5 -4 10 3 6 8 10 11 10 2 0 4 -4 4 -10z m-77
-45 c-3 -9 -8 -14 -10 -11 -3 3 -2 9 2 15 9 16 15 13 8 -4z m-856 -1 c-3 -3
-12 -4 -19 -1 -8 3 -5 6 6 6 11 1 17 -2 13 -5z m361 -22 c-12 -2 -28 -11 -35
-20 -11 -15 -12 -15 -13 6 0 15 6 22 19 22 11 0 23 5 27 11 4 8 9 7 15 -2 6
-10 2 -15 -13 -17z m-131 -44 c-3 -8 -6 -5 -6 6 -1 11 2 17 5 13 3 -3 4 -12 1
-19z m733 2 c0 -5 -4 -10 -10 -10 -5 0 -10 5 -10 10 0 6 5 10 10 10 6 0 10 -4
10 -10z m1435 -19 c-6 -5 -25 10 -25 20 0 5 6 4 14 -3 8 -7 12 -15 11 -17z
m355 19 c0 -5 -6 -10 -14 -10 -8 0 -18 5 -21 10 -3 6 3 10 14 10 12 0 21 -4
21 -10z m137 -42 c-3 -8 -6 -5 -6 6 -1 11 2 17 5 13 3 -3 4 -12 1 -19z m-2007
-33 c0 -8 -4 -15 -10 -15 -5 0 -7 7 -4 15 4 8 8 15 10 15 2 0 4 -7 4 -15z
m218 -5 c5 -13 3 -13 -13 0 -16 14 -17 13 -11 -7 6 -18 1 -25 -23 -37 -37 -20
-41 -20 -41 -1 0 8 6 15 13 15 8 0 19 12 26 26 12 27 41 30 49 4z m-168 -16
c0 -14 -12 -19 -23 -8 -9 9 4 35 14 28 5 -3 9 -12 9 -20z m-550 -21 c-1 -28
-3 -34 -10 -22 -8 14 -3 59 6 59 2 0 4 -17 4 -37z m2520 -13 c0 -5 -7 -10 -16
-10 -8 0 -12 5 -9 10 3 6 10 10 16 10 5 0 9 -4 9 -10z m-1822 -32 c20 -20 14
-40 -10 -36 -15 2 -24 11 -26 26 -4 24 16 30 36 10z m42 -25 c0 -7 -4 -13 -9
-13 -10 0 -21 36 -13 45 7 7 22 -15 22 -32z m-750 17 c0 -5 -4 -10 -10 -10 -5
0 -10 5 -10 10 0 6 5 10 10 10 6 0 10 -4 10 -10z m660 -34 c0 -2 -7 -9 -15
-16 -12 -10 -15 -10 -15 4 0 9 7 16 15 16 8 0 15 -2 15 -4z m60 -21 c0 -8 -7
-15 -15 -15 -8 0 -15 7 -15 15 0 8 7 15 15 15 8 0 15 -7 15 -15z m26 -72 c-10
-10 -19 5 -10 18 6 11 8 11 12 0 2 -7 1 -15 -2 -18z m-697 -24 c11 -19 11 -21
-4 -15 -9 3 -19 6 -21 6 -2 0 -4 7 -4 15 0 21 13 19 29 -6z m-39 1 c0 -5 -5
-10 -11 -10 -5 0 -7 5 -4 10 3 6 8 10 11 10 2 0 4 -4 4 -10z m-5 -40 c3 -5 1
-10 -4 -10 -6 0 -11 5 -11 10 0 6 2 10 4 10 3 0 8 -4 11 -10z m555 -10 c0 -5
-2 -10 -4 -10 -3 0 -8 5 -11 10 -3 6 -1 10 4 10 6 0 11 -4 11 -10z m235 -30
c3 -5 1 -10 -4 -10 -6 0 -11 5 -11 10 0 6 2 10 4 10 3 0 8 -4 11 -10z m-215
-97 c0 -10 -32 -43 -42 -43 -4 0 -8 7 -8 15 0 8 7 15 15 15 8 0 15 5 15 10 0
6 5 10 10 10 6 0 10 -3 10 -7z m-460 -63 c0 -5 -4 -10 -10 -10 -5 0 -10 5 -10
10 0 6 5 10 10 10 6 0 10 -4 10 -10z m437 -12 c-3 -8 -6 -5 -6 6 -1 11 2 17 5
13 3 -3 4 -12 1 -19z m263 12 c0 -12 -40 -34 -48 -26 -3 4 3 13 14 21 22 17
34 19 34 5z m-705 -100 c-3 -5 -12 -7 -20 -3 -21 7 -19 13 6 13 11 0 18 -4 14
-10z m522 -96 c-3 -3 -12 -4 -19 -1 -8 3 -5 6 6 6 11 1 17 -2 13 -5z"/>
<path d="M1568 4463 c7 -3 16 -2 19 1 4 3 -2 6 -13 5 -11 0 -14 -3 -6 -6z"/>
<path d="M1535 4430 c-3 -5 1 -10 9 -10 8 0 18 5 21 10 3 6 -1 10 -9 10 -8 0
-18 -4 -21 -10z"/>
<path d="M1448 4423 c6 -2 18 -2 25 0 6 3 1 5 -13 5 -14 0 -19 -2 -12 -5z"/>
<path d="M1263 4153 c-15 -5 -17 -23 -4 -23 5 0 11 7 15 15 3 8 4 15 3 14 -1
0 -8 -3 -14 -6z"/>
<path d="M1458 4143 c7 -3 16 -2 19 1 4 3 -2 6 -13 5 -11 0 -14 -3 -6 -6z"/>
<path d="M1410 4130 c0 -5 7 -10 15 -10 8 0 15 5 15 10 0 6 -7 10 -15 10 -8 0
-15 -4 -15 -10z"/>
<path d="M1444 3997 c-11 -12 -27 -26 -36 -30 -10 -3 -18 -11 -18 -17 0 -6 4
-8 10 -5 6 3 7 -1 4 -9 -3 -9 -12 -16 -19 -16 -8 0 -17 -5 -21 -12 -4 -7 -3
-8 4 -4 7 4 12 3 12 -3 0 -6 -10 -15 -21 -22 -16 -8 -18 -13 -9 -19 7 -4 9
-16 6 -28 -6 -17 16 -82 27 -82 1 0 2 19 2 43 1 24 13 67 28 100 15 32 27 64
27 72 0 7 7 21 16 30 9 9 14 18 11 21 -2 3 -13 -6 -23 -19z"/>
<path d="M1266 3675 c-3 -8 -8 -37 -12 -65 -6 -45 -5 -50 12 -50 36 0 56 27
67 88 6 30 5 32 -13 22 -16 -9 -22 -8 -26 5 -8 19 -20 19 -28 0z"/>
<path d="M1660 3330 c-19 -5 -50 -13 -69 -17 l-34 -8 51 -14 51 -14 -41 -20
-41 -21 23 -18 22 -18 -32 0 c-39 0 -70 -16 -70 -35 0 -8 -4 -15 -10 -15 -18
0 -10 -22 10 -27 28 -7 25 -20 -7 -31 -27 -10 -27 -10 12 -11 22 -1 50 -8 63
-16 20 -15 21 -15 15 1 -5 13 -2 15 15 9 12 -3 22 -2 22 3 0 5 11 14 25 20 20
9 25 9 25 -2 0 -8 9 -16 20 -19 29 -7 26 -36 -2 -31 -13 2 -18 2 -11 -2 7 -3
9 -12 6 -20 -3 -9 2 -14 18 -16 13 0 29 -2 34 -3 6 -2 16 -3 22 -4 21 -2 10
-52 -16 -72 -32 -26 -19 -37 15 -13 15 11 34 24 42 29 34 21 44 37 63 100 14
42 26 65 36 65 11 0 13 -7 8 -31 -5 -24 -4 -30 6 -27 18 6 28 48 17 77 -11 31
9 53 51 55 17 1 31 4 31 7 0 4 14 12 30 19 39 16 70 55 70 88 l0 26 -27 -30
c-16 -17 -27 -28 -26 -26 2 3 -2 11 -8 18 -8 10 -16 11 -30 3 -13 -6 -31 -7
-53 0 -26 7 -36 6 -40 -4 -5 -14 -79 -11 -123 6 -13 5 -38 9 -55 9 -26 0 -29
2 -18 15 10 12 10 15 -1 15 -8 0 -23 2 -34 4 -11 2 -36 0 -55 -4z m-24 -100
c5 -5 31 -11 57 -13 65 -6 68 -14 9 -22 -27 -3 -61 -13 -76 -20 -15 -8 -44
-17 -64 -20 -35 -6 -36 -5 -18 9 11 9 32 16 47 16 14 0 32 7 39 15 14 17 14
17 -15 33 -15 8 -16 11 -4 12 8 0 19 -4 25 -10z m104 -59 c0 -5 10 -11 23 -13
36 -6 -47 -38 -99 -38 -41 0 -43 1 -32 19 7 11 21 24 33 30 26 12 75 14 75 2z"/>
<path d="M1630 3040 c8 -5 20 -10 25 -10 6 0 3 5 -5 10 -8 5 -19 10 -25 10 -5
0 -3 -5 5 -10z"/>
<path d="M960 2974 c0 -8 5 -12 10 -9 6 3 10 10 10 16 0 5 -4 9 -10 9 -5 0
-10 -7 -10 -16z"/>
<path d="M940 2920 c0 -5 4 -10 9 -10 6 0 13 5 16 10 3 6 -1 10 -9 10 -9 0
-16 -4 -16 -10z"/>
<path d="M910 2890 c0 -5 4 -10 9 -10 6 0 13 5 16 10 3 6 -1 10 -9 10 -9 0
-16 -4 -16 -10z"/>
<path d="M915 2771 c-6 -11 9 -23 19 -14 9 9 7 23 -3 23 -6 0 -12 -4 -16 -9z"/>
<path d="M2020 2730 c6 -11 15 -20 20 -20 6 0 10 9 10 20 0 13 -7 20 -20 20
-18 0 -19 -3 -10 -20z"/>
<path d="M951 2530 c0 -8 4 -22 9 -30 12 -18 12 -2 0 25 -6 13 -9 15 -9 5z"/>
<path d="M2062 2450 c0 -14 2 -19 5 -12 2 6 2 18 0 25 -3 6 -5 1 -5 -13z"/>
<path d="M2300 2417 c0 -15 4 -27 9 -27 5 0 14 -12 20 -27 9 -25 10 -24 5 12
-4 22 -13 47 -20 55 -12 12 -14 11 -14 -13z"/>
<path d="M2260 2410 c0 -5 5 -10 10 -10 6 0 10 5 10 10 0 6 -4 10 -10 10 -5 0
-10 -4 -10 -10z"/>
<path d="M950 2375 c0 -8 7 -15 16 -15 14 0 14 3 4 15 -7 8 -14 15 -16 15 -2
0 -4 -7 -4 -15z"/>
<path d="M1891 2231 c-10 -6 -10 -10 -1 -16 8 -5 10 -19 5 -41 -4 -25 -2 -34
8 -34 34 0 49 48 22 70 -8 7 -12 16 -9 21 7 11 -7 11 -25 0z"/>
<path d="M1957 2186 c-5 -15 -6 -31 -3 -34 8 -8 18 25 14 45 -3 13 -6 10 -11
-11z"/>
<path d="M1920 2125 c0 -8 5 -15 11 -15 6 0 8 -8 4 -19 -3 -11 -1 -22 4 -26 7
-4 8 1 4 11 -5 14 -3 16 11 11 14 -6 16 -3 10 16 -10 34 -44 51 -44 22z"/>
<path d="M2012 2010 c0 -14 2 -19 5 -12 2 6 2 18 0 25 -3 6 -5 1 -5 -13z"/>
<path d="M1305 1990 c-3 -5 -1 -10 4 -10 6 0 11 5 11 10 0 6 -2 10 -4 10 -3 0
-8 -4 -11 -10z"/>
<path d="M1604 1834 c-10 -8 -13 -13 -6 -9 7 4 12 -1 12 -14 0 -30 21 -71 37
-71 8 0 6 7 -8 21 -16 16 -20 28 -14 55 7 39 6 40 -21 18z"/>
<path d="M1791 1774 c0 -11 3 -14 6 -6 3 7 2 16 -1 19 -3 4 -6 -2 -5 -13z"/>
<path d="M1750 1750 c-13 -9 -13 -12 1 -23 9 -7 19 -21 22 -32 4 -17 5 -17 6
-2 1 10 9 17 22 17 12 0 19 5 16 13 -2 6 -10 11 -17 9 -7 -1 -17 4 -24 12 -8
11 -15 13 -26 6z"/>
<path d="M650 2245 c0 -5 5 -17 10 -25 5 -8 10 -10 10 -5 0 6 -5 17 -10 25 -5
8 -10 11 -10 5z"/>
<path d="M682 2095 c0 -16 2 -22 5 -12 2 9 2 23 0 30 -3 6 -5 -1 -5 -18z"/>
<path d="M305 1500 c3 -5 8 -10 11 -10 2 0 4 5 4 10 0 6 -5 10 -11 10 -5 0 -7
-4 -4 -10z"/>
</g>
</svg>
